<svg width="14" height="15" viewBox="0 0 14 15" fill="none" xmlns="http://www.w3.org/2000/svg">
<path id="Star" d="M6.5433 0.807068C6.72234 0.397645 7.27765 0.397643 7.4567 0.807067L9.1404 4.65718C9.21355 4.82445 9.36478 4.93955 9.53925 4.96075L13.5549 5.44849C13.9819 5.50035 14.1535 6.05361 13.8371 6.35852L10.8621 9.22576C10.7328 9.35033 10.6751 9.53657 10.7097 9.71694L11.5078 13.8685C11.5927 14.31 11.1435 14.6519 10.7689 14.4309L7.2465 12.3529C7.09346 12.2626 6.90653 12.2626 6.7535 12.3529L3.23111 14.4309C2.85654 14.6519 2.40728 14.31 2.49215 13.8685L3.29025 9.71694C3.32493 9.53657 3.26716 9.35033 3.13791 9.22576L0.16285 6.35852C-0.15352 6.05361 0.0180786 5.50035 0.445105 5.44849L4.46075 4.96075C4.63521 4.93955 4.78645 4.82445 4.8596 4.65718L6.5433 0.807068Z" fill="#FFD178"/>
</svg>
