<svg width="130" height="131" viewBox="0 0 130 131" fill="none" xmlns="http://www.w3.org/2000/svg">
    <mask id="mask0_307_153" style="mask-type:luminance" maskUnits="userSpaceOnUse" x="0" y="0" width="130" height="131">
        <path d="M125.684 0H4C1.79086 0 0 1.79086 0 4V126.7C0 128.909 1.79087 130.7 4.00001 130.7H125.684C127.893 130.7 129.684 128.909 129.684 126.7V4C129.684 1.79086 127.893 0 125.684 0Z" fill="white"/>
    </mask>
    <g mask="url(#mask0_307_153)">
        <path d="M65.0634 -0.00158714C65.0634 -0.000980513 65.0629 -0.000488741 65.0623 -0.000488741H10.6833C7.11586 -0.000488741 5.33292 4.31593 7.86043 6.83351L13.3073 12.259C14.057 13.0057 15.072 13.425 16.1302 13.425H65.0634C78.7615 13.425 91.8981 18.8602 101.584 28.5349C111.27 38.2096 116.712 51.3313 116.712 65.0134C116.712 78.6955 111.27 91.8175 101.584 101.492C91.8981 111.166 78.7615 116.602 65.0634 116.602H43.1597C39.5936 116.602 37.8101 112.288 40.335 109.77L44.6463 105.47C45.3962 104.722 46.412 104.302 47.4711 104.302H65.0723C75.5014 104.302 85.5033 100.164 92.8775 92.7977C100.253 85.4317 104.396 75.4414 104.396 65.0244C104.396 54.6074 100.253 44.617 92.8775 37.2511C85.5033 29.8852 75.5014 25.747 65.0723 25.747H36.456C32.8906 25.747 31.1067 30.0592 33.6301 32.578L39.3855 38.323C40.1355 39.0717 41.152 39.4922 42.2118 39.4921L59.6655 39.4901L65.0634 39.4758C71.8468 39.4758 78.3523 42.1674 83.1488 46.9583C87.9454 51.7493 90.64 58.2473 90.64 65.0228C90.64 71.7982 87.9454 78.2962 83.1488 83.0871C78.3523 87.8782 71.8468 90.57 65.0634 90.57H42.1938C41.1336 90.57 40.1168 90.9909 39.3668 91.7402L14.4824 116.599L7.85224 123.221C5.33001 125.741 7.11415 130.052 10.6789 130.052H65.0634C82.3298 130.052 98.8892 123.2 111.098 111.005C123.308 98.8103 130.166 82.2706 130.166 65.0244C130.166 47.7781 123.308 31.2382 111.098 19.0433C98.8894 6.84863 82.3305 -0.0023948 65.0645 -0.00268554C65.0639 -0.00268555 65.0634 -0.00219378 65.0634 -0.00158714Z" fill="#0D9813"/>
    </g>
</svg>
