<svg width="50" height="51" viewBox="0 0 50 51" fill="none" xmlns="http://www.w3.org/2000/svg">
<mask id="mask0_419_2887" style="mask-type:luminance" maskUnits="userSpaceOnUse" x="0" y="0" width="50" height="51">
<path d="M46 0H4C1.79086 0 0 1.79086 0 4V46.3916C0 48.6007 1.79086 50.3916 4 50.3916H46C48.2091 50.3916 50 48.6007 50 46.3916V4C50 1.79086 48.2091 0 46 0Z" fill="white"/>
</mask>
<g mask="url(#mask0_419_2887)">
<path d="M25.0828 -0.000553071C25.0828 -0.000319184 25.0826 -0.00012958 25.0824 -0.00012958H6.64851C4.3403 -0.00012958 3.18668 2.79271 4.82205 4.42165C5.30712 4.90481 5.96387 5.17608 6.64851 5.17608H25.0828C30.3641 5.17608 35.4289 7.27163 39.1634 11.0017C42.8978 14.7318 44.9959 19.7909 44.9959 25.0661C44.9959 30.3413 42.8978 35.4004 39.1634 39.1304C35.4289 42.8604 30.3641 44.9562 25.0828 44.9562H18.6428C16.5288 44.9562 15.4715 42.399 16.9683 40.9061C17.4128 40.4628 18.015 40.2138 18.6428 40.2138H25.0862C29.1072 40.2138 32.9634 38.6184 35.8065 35.7784C38.65 32.9384 40.2474 29.0866 40.2474 25.0703C40.2474 21.054 38.65 17.2022 35.8065 14.3623C32.9634 11.5223 29.1072 9.92687 25.0862 9.92687H16.7302C14.3685 9.92687 13.1868 12.7833 14.8583 14.4519C15.3552 14.9478 16.0285 15.2263 16.7305 15.2262L23.0016 15.2255L25.0828 15.22C27.6981 15.22 30.2063 16.2578 32.0556 18.1049C33.905 19.9521 34.9439 22.4574 34.9439 25.0697C34.9439 27.682 33.905 30.1873 32.0556 32.0344C30.2063 33.8816 27.6981 34.9195 25.0828 34.9195H17.2827C16.2225 34.9195 15.2057 35.3403 14.4557 36.0896L5.58117 44.9552C3.6659 46.8681 5.02069 50.1417 7.72764 50.1417H25.0828C31.7398 50.1417 38.1244 47.5002 42.8316 42.7983C47.5389 38.0965 50.1831 31.7196 50.1831 25.0703C50.1831 18.421 47.5389 12.044 42.8316 7.34224C38.1245 2.64056 31.7401 -0.000864463 25.0832 -0.000976559C25.083 -0.000976563 25.0828 -0.000786959 25.0828 -0.000553071Z" fill="#0D9813"/>
</g>
</svg>
