<svg width="23" height="23" viewBox="0 0 23 23" fill="none" xmlns="http://www.w3.org/2000/svg">
<path fill-rule="evenodd" clip-rule="evenodd" d="M12.4078 3.85845C11.8209 3.66281 11.1863 3.66281 10.5994 3.85845C9.83166 4.11436 9.20833 4.68359 8.88397 5.42499L4.11806 16.3185C3.7931 17.0613 3.83865 17.914 4.24089 18.6179C4.69731 19.4166 5.54673 19.9096 6.46667 19.9096H6.63884C7.40777 19.9096 8.1538 19.6479 8.75423 19.1675L9.3781 18.6684C9.81074 18.3223 10.224 17.9544 10.6166 17.5664C9.80023 16.6307 9.08619 15.6067 8.48869 14.5112L8.43891 14.42C7.73603 13.1314 7.92021 11.5391 8.89441 10.4431C10.2815 8.88258 12.7257 8.88258 14.1128 10.4431C15.087 11.5391 15.2712 13.1314 14.5683 14.42L14.5185 14.5112C13.921 15.6067 13.207 16.6307 12.3906 17.5664C12.7831 17.9544 13.1965 18.3223 13.6291 18.6684L14.253 19.1675C14.8534 19.6479 15.5994 19.9096 16.3683 19.9096H16.5405C17.4605 19.9096 18.3099 19.4166 18.7663 18.6179C19.1685 17.914 19.2141 17.0613 18.8891 16.3185L14.1232 5.42499C13.7989 4.68359 13.1755 4.11436 12.4078 3.85845ZM11.5036 18.5087C11.9215 18.9203 12.3611 19.3109 12.8209 19.6787L13.4448 20.1778C14.2746 20.8416 15.3056 21.2033 16.3683 21.2033H16.5405C17.9247 21.2033 19.2028 20.4616 19.8896 19.2598C20.4948 18.2006 20.5634 16.9176 20.0744 15.7999L15.3085 4.90643C14.8374 3.82958 13.932 3.00279 12.8169 2.63109C11.9644 2.34693 11.0428 2.34693 10.1903 2.63109C9.07518 3.00279 8.16982 3.82958 7.69869 4.90643L2.93278 15.7999C2.44383 16.9176 2.51237 18.2006 3.1176 19.2598C3.80437 20.4616 5.08246 21.2033 6.46667 21.2033H6.63884C7.70154 21.2033 8.7326 20.8416 9.56243 20.1778L10.1863 19.6787C10.6461 19.3109 11.0857 18.9203 11.5036 18.5087ZM11.5036 16.6143C12.2217 15.777 12.8519 14.8648 13.3827 13.8917L13.4325 13.8005C13.8733 12.9924 13.7583 11.9917 13.1458 11.3026C12.2733 10.3211 10.7339 10.3211 9.86138 11.3026C9.24888 11.9917 9.13391 12.9924 9.57468 13.8005L9.62446 13.8917C10.1552 14.8648 10.7855 15.777 11.5036 16.6143Z" fill="white"/>
</svg>
