<svg width="12" height="12" viewBox="0 0 12 12" fill="none" xmlns="http://www.w3.org/2000/svg">
<g clip-path="url(#clip0_1544_22593)">
<path d="M10.8993 5.0017C11.1277 6.12235 10.9649 7.28742 10.4383 8.3026C9.91157 9.31779 9.05278 10.1217 8.00509 10.5804C6.9574 11.039 5.78414 11.1246 4.68098 10.8229C3.57782 10.5212 2.61142 9.8504 1.94297 8.92241C1.27451 7.99443 0.94439 6.86532 1.00766 5.7234C1.07093 4.58147 1.52377 3.49575 2.29065 2.64729C3.05754 1.79883 4.09212 1.23892 5.22186 1.06093C6.3516 0.882942 7.50822 1.09763 8.49883 1.6692" stroke="white" stroke-linecap="round" stroke-linejoin="round"/>
<path d="M4.5 5.5L6 7L11 2" stroke="white" stroke-linecap="round" stroke-linejoin="round"/>
</g>
<defs>
<clipPath id="clip0_1544_22593">
<rect width="12" height="12" fill="white"/>
</clipPath>
</defs>
</svg>
