<svg width="30" height="30" viewBox="0 0 30 30" fill="none" xmlns="http://www.w3.org/2000/svg">
<path d="M21.2956 0H8.71935C3.25662 0 0 3.255 0 8.715V21.27C0 26.745 3.25662 30 8.71935 30H21.2806C26.7433 30 29.9999 26.745 29.9999 21.285V8.715C30.015 3.255 26.7583 0 21.2956 0ZM15.0075 20.82C11.7959 20.82 9.18458 18.21 9.18458 15C9.18458 11.79 11.7959 9.18 15.0075 9.18C18.2191 9.18 20.8304 11.79 20.8304 15C20.8304 18.21 18.2191 20.82 15.0075 20.82ZM23.8919 7.32C23.8169 7.5 23.7118 7.665 23.5767 7.815C23.4267 7.95 23.2616 8.055 23.0815 8.13C22.9014 8.205 22.7063 8.25 22.5112 8.25C22.106 8.25 21.7308 8.1 21.4457 7.815C21.3106 7.665 21.2056 7.5 21.1305 7.32C21.0555 7.14 21.0105 6.945 21.0105 6.75C21.0105 6.555 21.0555 6.36 21.1305 6.18C21.2056 5.985 21.3106 5.835 21.4457 5.685C21.7909 5.34 22.3161 5.175 22.7964 5.28C22.9014 5.295 22.9915 5.325 23.0815 5.37C23.1715 5.4 23.2616 5.445 23.3516 5.505C23.4267 5.55 23.5017 5.625 23.5767 5.685C23.7118 5.835 23.8169 5.985 23.8919 6.18C23.9669 6.36 24.012 6.555 24.012 6.75C24.012 6.945 23.9669 7.14 23.8919 7.32Z" fill="#DE1066"/>
</svg>