<svg width="478" height="144" viewBox="0 0 478 144" fill="none" xmlns="http://www.w3.org/2000/svg">
<mask id="mask0_2953_9393" style="mask-type:luminance" maskUnits="userSpaceOnUse" x="0" y="12" width="120" height="120">
<path d="M115.067 12H4C1.79086 12 0 13.7909 0 16V128C0 130.209 1.79087 132 4 132H115.068C117.277 132 119.068 130.209 119.068 128V16C119.068 13.7909 117.277 12 115.067 12Z" fill="white"/>
</mask>
<g mask="url(#mask0_2953_9393)">
<path d="M59.737 11.9983C59.737 11.9989 59.7365 11.9993 59.736 11.9993H10.6016C7.03414 11.9993 5.25119 16.3158 7.7787 18.8333L12.1222 23.1597C12.8719 23.9064 13.8869 24.3257 14.945 24.3257H59.737C72.3136 24.3257 84.3748 29.3159 93.2678 38.1986C102.161 47.0813 107.157 59.1288 107.157 71.6908C107.157 84.2528 102.161 96.3005 93.2678 105.183C84.3748 114.065 72.3136 119.056 59.737 119.056H40.4185C36.8524 119.056 35.0689 114.742 37.5937 112.224L40.8955 108.931C41.6454 108.183 42.6612 107.763 43.7203 107.763H59.7451C69.3204 107.763 78.5036 103.964 85.274 97.2005C92.0453 90.4375 95.8493 81.265 95.8493 71.7008C95.8493 62.1367 92.0453 52.9642 85.274 46.2012C78.5036 39.4383 69.3204 35.639 59.7451 35.639H34.2631C30.6978 35.639 28.9139 39.9512 31.4372 42.47L36.0653 47.0897C36.8154 47.8384 37.8319 48.2589 38.8917 48.2588L54.781 48.2569L59.737 48.2438C65.965 48.2438 71.938 50.7151 76.3418 55.1138C80.7457 59.5125 83.2197 65.4786 83.2197 71.6994C83.2197 77.9202 80.7457 83.8861 76.3418 88.2849C71.938 92.6837 65.965 95.1551 59.737 95.1551H38.8752C37.815 95.1551 36.7982 95.576 36.0482 96.3253L13.2968 119.054L7.76935 124.574C5.24712 127.094 7.03125 131.405 10.596 131.405H59.737C75.5898 131.405 90.7935 125.114 102.003 113.917C113.213 102.721 119.51 87.5352 119.51 71.7008C119.51 55.8665 113.213 40.6807 102.003 29.4841C90.7938 18.2877 75.5904 11.9976 59.738 11.9973C59.7374 11.9973 59.737 11.9978 59.737 11.9983Z" fill="#0D9813"/>
</g>
<path d="M145.896 106V44.176H172.68C178.952 44.176 184.232 45.232 188.52 47.344C192.808 49.392 196.072 52.72 198.312 57.328C200.552 61.872 201.672 67.92 201.672 75.472C201.672 86.096 199.208 93.84 194.28 98.704C189.416 103.568 182.216 106 172.68 106H145.896ZM161.352 94.096H170.568C173.896 94.096 176.68 93.616 178.92 92.656C181.224 91.632 182.952 89.776 184.104 87.088C185.32 84.4 185.928 80.528 185.928 75.472C185.928 70.352 185.384 66.416 184.296 63.664C183.272 60.848 181.608 58.896 179.304 57.808C177.064 56.656 174.152 56.08 170.568 56.08H161.352V94.096ZM238.448 106.96C228.4 106.96 220.752 104.4 215.504 99.28C210.256 94.16 207.632 86.192 207.632 75.376C207.632 63.92 210.256 55.696 215.504 50.704C220.752 45.712 228.4 43.216 238.448 43.216C248.496 43.216 256.144 45.712 261.392 50.704C266.64 55.696 269.264 63.92 269.264 75.376C269.264 86.192 266.64 94.16 261.392 99.28C256.144 104.4 248.496 106.96 238.448 106.96ZM238.448 93.808C243.632 93.808 247.408 92.336 249.776 89.392C252.208 86.384 253.424 81.712 253.424 75.376C253.424 68.464 252.208 63.6 249.776 60.784C247.408 57.904 243.632 56.464 238.448 56.464C233.2 56.464 229.36 57.904 226.928 60.784C224.56 63.6 223.376 68.464 223.376 75.376C223.376 81.712 224.56 86.384 226.928 89.392C229.36 92.336 233.2 93.808 238.448 93.808ZM277.146 106V44.176H292.41L309.21 78.448L325.914 44.176H341.082V106H325.626V70.48L313.434 95.44H304.89L292.602 70.48V106H277.146ZM350.834 106V44.176H366.29V106H350.834ZM390.356 106V56.08H372.212V44.176H423.956V56.08H405.812V106H390.356ZM448.701 106.96C444.605 106.96 440.765 106.64 437.181 106C433.661 105.424 430.621 104.56 428.061 103.408V90.256C430.877 91.472 433.981 92.464 437.373 93.232C440.829 94 444.093 94.384 447.165 94.384C451.005 94.384 453.853 94.032 455.709 93.328C457.629 92.624 458.589 91.088 458.589 88.72C458.589 87.12 458.109 85.84 457.149 84.88C456.253 83.92 454.749 83.088 452.637 82.384C450.589 81.616 447.773 80.72 444.189 79.696C439.965 78.416 436.605 77.008 434.109 75.472C431.613 73.872 429.821 71.952 428.733 69.712C427.645 67.472 427.101 64.72 427.101 61.456C427.101 55.568 429.213 51.056 433.437 47.92C437.661 44.784 443.901 43.216 452.157 43.216C455.741 43.216 459.229 43.504 462.621 44.08C466.013 44.592 468.765 45.2 470.877 45.904V59.152C468.125 58.064 465.341 57.264 462.525 56.752C459.773 56.24 457.085 55.984 454.461 55.984C451.005 55.984 448.189 56.304 446.013 56.944C443.901 57.584 442.845 59.056 442.845 61.36C442.845 62.704 443.229 63.792 443.997 64.624C444.765 65.392 446.077 66.096 447.933 66.736C449.853 67.376 452.445 68.144 455.709 69.04C460.765 70.384 464.637 72.016 467.325 73.936C470.013 75.792 471.869 77.968 472.893 80.464C473.917 82.896 474.429 85.648 474.429 88.72C474.429 94.16 472.317 98.576 468.093 101.968C463.869 105.296 457.405 106.96 448.701 106.96Z" fill="#0D9813"/>
</svg>



