<svg width="52" height="4" viewBox="0 0 52 4" fill="none" xmlns="http://www.w3.org/2000/svg">
<path id="Arrow 1" d="M0.615885 2C0.615885 2.73638 1.21284 3.33333 1.94922 3.33333C2.6856 3.33333 3.28255 2.73638 3.28255 2C3.28255 1.26362 2.6856 0.666667 1.94922 0.666667C1.21284 0.666667 0.615885 1.26362 0.615885 2ZM48.7894 2C48.7894 2.73638 49.3863 3.33334 50.1227 3.33334C50.8591 3.33334 51.456 2.73638 51.456 2C51.456 1.26362 50.8591 0.666671 50.1227 0.666671C49.3863 0.666671 48.7894 1.26362 48.7894 2ZM1.94922 2.25L50.1227 2.25L50.1227 1.75L1.94922 1.75L1.94922 2.25Z" fill="black"/>
</svg>
