<svg width="15" height="15" viewBox="0 0 15 15" fill="none" xmlns="http://www.w3.org/2000/svg">
<path id="Star" d="M7.0433 0.807068C7.22234 0.397645 7.77765 0.397643 7.9567 0.807067L9.6404 4.65718C9.71355 4.82445 9.86478 4.93955 10.0392 4.96075L14.0549 5.44849C14.4819 5.50035 14.6535 6.05361 14.3371 6.35852L11.3621 9.22576C11.2328 9.35033 11.1751 9.53657 11.2097 9.71694L12.0078 13.8685C12.0927 14.31 11.6435 14.6519 11.2689 14.4309L7.7465 12.3529C7.59346 12.2626 7.40653 12.2626 7.2535 12.3529L3.73111 14.4309C3.35654 14.6519 2.90728 14.31 2.99215 13.8685L3.79025 9.71694C3.82493 9.53657 3.76716 9.35033 3.63791 9.22576L0.66285 6.35852C0.34648 6.05361 0.518079 5.50035 0.945105 5.44849L4.96075 4.96075C5.13521 4.93955 5.28645 4.82445 5.3596 4.65718L7.0433 0.807068Z" fill="#FFD178"/>
</svg>
